<?xml version="1.0" standalone="no"?>
<!DOCTYPE svg PUBLIC "-//W3C//DTD SVG 20010904//EN"
 "http://www.w3.org/TR/2001/REC-SVG-20010904/DTD/svg10.dtd">
<svg version="1.0" xmlns="http://www.w3.org/2000/svg"
 width="500.000000pt" height="500.000000pt" viewBox="0 0 500.000000 500.000000"
 preserveAspectRatio="xMidYMid meet">
<metadata>
Created by potrace 1.14, written by Peter Selinger 2001-2017
</metadata>
<g transform="translate(0.000000,500.000000) scale(0.100000,-0.100000)"
fill="#000000" stroke="none">
<path d="M766 4738 c-41 -9 -101 -61 -91 -78 3 -6 2 -10 -2 -10 -5 0 -7 -584
-6 -1297 2 -1570 1 -1444 16 -1462 9 -11 9 -13 0 -8 -8 5 -11 0 -10 -13 1 -11
4 -20 8 -20 4 0 6 -18 5 -40 -1 -23 2 -40 8 -40 6 0 4 -5 -4 -10 -8 -5 -10
-10 -5 -10 6 0 11 -8 12 -17 1 -10 5 -38 8 -63 4 -25 8 -51 8 -57 0 -7 3 -13
7 -13 6 0 10 -16 11 -52 0 -10 4 -18 10 -18 5 0 9 -13 9 -30 0 -16 4 -30 8
-30 4 0 9 -10 9 -22 1 -13 7 -24 13 -26 5 -2 7 -8 4 -13 -3 -6 2 -21 10 -34 9
-14 14 -25 10 -25 -4 0 -1 -7 6 -15 7 -8 9 -15 4 -15 -5 0 -4 -4 2 -8 11 -8
47 -79 50 -102 2 -8 7 -16 13 -18 5 -2 15 -19 21 -38 6 -19 16 -34 21 -34 5 0
9 -7 9 -15 0 -8 4 -15 10 -15 5 0 9 -3 8 -7 -3 -11 93 -153 103 -153 4 0 10
-9 14 -20 3 -11 24 -39 46 -62 125 -134 233 -238 248 -238 5 0 11 -7 15 -15 3
-8 10 -15 15 -15 6 0 22 -11 37 -25 14 -13 30 -22 34 -20 4 3 10 -2 14 -10 3
-8 12 -15 20 -15 8 0 16 -4 18 -9 2 -5 10 -11 18 -13 8 -2 22 -10 30 -18 8 -8
22 -16 30 -18 8 -2 17 -8 18 -13 2 -5 8 -7 13 -3 5 3 9 0 9 -6 0 -6 5 -8 10
-5 5 3 10 1 10 -4 0 -6 9 -11 20 -11 11 0 20 -4 20 -10 0 -5 5 -10 10 -10 6 0
32 -9 58 -21 80 -36 85 -38 151 -59 35 -11 71 -20 78 -20 8 0 11 -5 7 -12 -4
-6 -3 -8 2 -5 6 3 30 1 55 -5 24 -6 52 -10 61 -10 10 0 20 -4 23 -9 4 -5 10
-7 15 -4 5 3 19 1 30 -5 15 -8 20 -8 20 1 0 7 4 8 13 2 13 -10 63 -16 149 -17
32 -1 58 -4 58 -8 0 -4 12 -3 28 1 15 5 37 4 50 0 12 -5 22 -5 22 -1 0 9 64 7
79 -3 6 -3 11 -2 11 2 0 5 21 9 48 10 26 0 70 3 97 7 28 4 64 8 80 10 17 3 31
5 33 6 3 3 9 5 62 15 49 10 48 9 70 17 65 22 84 27 91 22 5 -3 9 0 9 6 0 6 4
9 9 5 5 -3 13 0 16 6 4 5 13 8 20 5 8 -3 15 -1 17 5 2 5 12 11 23 13 11 2 34
11 50 20 17 9 36 16 43 16 6 0 12 4 12 10 0 5 3 9 8 8 12 -3 52 13 52 21 0 5
14 11 31 15 18 3 28 10 24 17 -4 5 -1 9 6 8 22 -3 50 12 42 24 -3 5 -1 7 5 3
6 -3 17 0 25 8 8 8 17 12 21 9 3 -4 6 -1 6 5 0 7 5 12 10 12 5 0 19 9 30 20
11 11 27 20 36 20 8 0 13 4 9 9 -3 5 4 12 15 16 11 3 20 11 20 16 0 5 6 9 13
9 7 0 18 9 25 21 7 12 16 19 18 16 7 -6 174 162 174 175 0 5 5 6 10 3 6 -3 10
-1 10 6 0 6 13 24 29 40 16 15 27 29 25 32 -2 2 5 12 16 22 11 10 20 24 20 30
0 7 7 16 16 19 9 4 14 9 11 12 -3 4 7 20 24 38 16 17 27 37 24 44 -2 6 0 12 6
12 6 0 7 5 3 12 -5 7 -3 8 5 4 8 -5 14 0 18 13 3 12 10 21 15 21 5 0 7 4 4 9
-3 4 3 19 14 31 11 13 20 29 20 37 0 8 7 21 15 30 8 8 13 19 10 24 -4 5 -1 9
5 9 6 0 8 5 5 10 -3 6 -2 10 3 10 5 0 15 18 22 40 7 22 17 40 21 40 5 0 6 6 3
14 -3 8 0 17 5 21 6 3 9 11 6 16 -4 5 -2 9 3 9 5 0 9 7 10 15 1 8 3 22 4 30 1
8 6 15 11 15 5 0 7 7 3 15 -3 8 -1 15 5 15 6 0 8 4 5 8 -3 5 1 21 9 36 8 15 9
24 3 20 -7 -5 -8 -2 -2 7 11 18 21 61 26 117 1 6 6 12 12 12 6 0 4 5 -4 10 -8
5 -10 10 -5 10 6 0 11 21 10 46 0 25 3 47 6 50 3 2 5 21 5 44 -1 22 3 40 9 40
5 0 3 5 -5 10 -8 5 -10 10 -5 10 7 0 10 358 10 1055 0 594 4 1055 9 1055 5 0
4 6 -1 13 -8 10 -10 151 -3 167 1 3 1 10 0 15 -2 6 -4 98 -5 205 -2 188 -6
223 -30 245 -33 30 -58 48 -51 38 5 -9 2 -11 -8 -7 -9 3 -14 9 -12 13 6 9
-167 7 -183 -3 -9 -6 -12 -5 -8 1 4 7 -74 9 -236 8 -198 -2 -248 -5 -277 -18
-19 -9 -30 -17 -25 -17 6 0 2 -6 -7 -14 -10 -7 -21 -24 -26 -37 -10 -29 -9
-639 1 -656 4 -6 3 -14 -3 -18 -7 -4 -6 -13 1 -27 6 -11 7 -18 2 -15 -9 6 -10
-749 0 -759 3 -3 2 -16 -2 -28 -8 -22 -7 -77 3 -102 3 -8 2 -13 -2 -10 -8 4
-6 -769 2 -789 2 -7 2 -15 0 -18 -3 -3 -7 -77 -9 -164 -2 -87 -4 -158 -5 -158
-1 0 -3 -11 -5 -25 -3 -33 -13 -86 -24 -132 -5 -21 -6 -38 -2 -38 3 0 2 -4 -4
-8 -8 -6 -40 -82 -48 -117 -2 -5 -8 -20 -15 -31 -6 -12 -8 -24 -5 -28 3 -3 1
-6 -6 -6 -7 0 -17 -13 -22 -30 -6 -16 -16 -30 -22 -30 -6 0 -8 -3 -4 -6 3 -3
-2 -14 -11 -25 -9 -11 -16 -22 -14 -25 1 -2 -12 -19 -30 -36 -18 -17 -26 -27
-18 -22 13 7 13 5 1 -9 -7 -9 -17 -14 -22 -11 -5 3 -9 -4 -9 -15 0 -12 -3 -20
-8 -18 -9 3 -52 -40 -52 -54 0 -5 -4 -8 -9 -4 -6 3 -14 -3 -20 -12 -6 -10 -11
-15 -11 -11 0 3 -13 -6 -29 -20 -43 -40 -58 -51 -63 -46 -3 2 -13 -5 -23 -16
-10 -11 -24 -20 -31 -20 -7 0 -22 -9 -33 -21 -13 -14 -21 -17 -26 -9 -5 8 -13
6 -26 -6 -11 -10 -27 -18 -37 -19 -9 -1 -27 -7 -39 -13 -13 -7 -23 -10 -23 -6
0 3 -7 1 -15 -6 -12 -10 -15 -10 -15 1 0 10 -2 11 -8 2 -4 -7 -23 -14 -43 -16
-19 -2 -41 -7 -48 -12 -10 -6 -12 -4 -6 6 8 12 6 12 -8 0 -10 -8 -20 -11 -24
-8 -3 4 -12 2 -20 -4 -9 -8 -13 -8 -13 0 0 7 -8 8 -24 1 -15 -5 -27 -5 -35 3
-8 8 -11 8 -11 -1 0 -6 -6 -10 -12 -7 -7 2 -42 6 -78 9 -84 7 -121 14 -139 29
-12 10 -13 9 -6 -2 6 -11 5 -12 -6 -5 -8 5 -25 10 -39 12 -13 2 -27 6 -30 10
-3 4 -14 9 -25 10 -11 2 -24 8 -29 13 -6 5 -18 9 -28 9 -10 0 -18 5 -18 10 0
6 -8 10 -19 10 -10 0 -24 7 -31 15 -7 8 -16 12 -21 9 -5 -3 -9 0 -9 5 0 6 -7
11 -15 11 -8 0 -15 4 -15 8 0 4 -13 16 -30 25 -47 28 -172 158 -220 227 -8 13
-21 29 -28 36 -7 8 -10 14 -5 14 4 0 0 7 -10 14 -10 8 -19 18 -19 23 -1 17
-22 53 -30 53 -5 0 -7 4 -4 8 2 4 -2 23 -11 42 -24 55 -31 73 -38 97 -9 34
-17 67 -17 81 -1 6 -5 12 -10 12 -5 0 -6 5 -3 10 4 6 1 17 -5 25 -10 12 -10
15 0 15 9 0 8 6 -4 19 -12 13 -14 21 -6 26 5 3 7 12 3 18 -5 7 -8 630 -8 1386
0 1091 -3 1375 -12 1378 -7 3 -13 11 -13 19 0 9 -3 13 -7 11 -10 -6 -34 18
-27 27 2 3 1 4 -3 1 -3 -3 -12 0 -19 6 -8 6 -21 9 -29 5 -8 -3 -15 -2 -15 2 0
11 -554 9 -562 -3 -5 -7 -11 -7 -15 0 -10 13 -21 14 -67 3z"/>
</g>
</svg>
