<svg width="1835" height="2897" viewBox="0 0 1835 2897" fill="none" xmlns="http://www.w3.org/2000/svg">
<path d="M1448.86 1737.94C1507.54 1717.43 1549.97 1691.4 1567.14 1659.9C1568.84 1656.79 1570.49 1653.27 1572.12 1649.52C1529.36 1628.46 1499.53 1581.51 1499.53 1526.84C1499.53 1453.3 1553.24 1411.04 1613.93 1384.95C1615.41 1383.94 1616.92 1382.99 1618.38 1381.96C1624.14 1313.38 1628.38 1236.68 1631.17 1155.76C1627.92 1153.64 1624.62 1151.59 1621.3 1149.59C1608.45 1172.32 1588.85 1186.87 1566.88 1186.87C1528.14 1186.87 1496.76 1141.75 1496.76 1086.08C1496.76 1030.42 1528.14 985.284 1566.88 985.284C1581.52 985.284 1595.1 991.751 1606.34 1002.78C1607.37 1003.06 1608.44 1003.26 1609.4 1003.63C1617.98 1006.8 1626.3 1010.26 1634.52 1013.87C1635.18 964.498 1635.36 914.511 1635.06 864.644C1626.97 866.711 1619.32 868.097 1612.38 868.697C1609.62 884.324 1596.18 896.524 1579.73 897.071C1560.85 897.698 1544.89 882.777 1544.26 863.897L1526.84 342.031C1526.21 323.151 1541.14 307.191 1560.01 306.564C1574.12 306.098 1586.58 314.311 1592.25 326.377C1597.73 326.417 1603.7 326.911 1610.06 327.844C1599.09 224.551 1584.68 148.351 1567.14 118.111C1482.36 -28.1025 594.103 -50.2492 460.865 118.111C433.591 152.564 412.587 229.964 397.416 332.751C376.576 473.964 366.765 663.151 366.907 855.177C366.939 899.591 367.513 944.124 368.597 988.284C369.687 1032.62 371.303 1076.52 373.427 1119.47C385.895 1371.74 415.939 1590.2 460.865 1659.9C479.045 1688.1 515.943 1711.82 565.631 1731.1C600.784 1744.74 642.335 1756.16 688.232 1765.38C875.712 1803.03 1135.38 1803.91 1325.41 1769.26C1371.3 1760.88 1413.1 1750.44 1448.86 1737.94Z" fill="#BADAE6"/>
<path d="M1581.66 1128.87C1579.62 1128.07 1577.6 1127.22 1575.54 1126.44C1559.24 1120.4 1546.9 1111.8 1537.48 1097.18C1528.14 1082.71 1527.34 1064.4 1531.06 1048.11C1534.52 1032.92 1547.12 1017.78 1560.33 1010.04C1572.54 1002.9 1591.85 998.844 1606.34 1002.78C1595.1 991.751 1581.52 985.284 1566.88 985.284C1528.14 985.284 1496.76 1030.42 1496.76 1086.08C1496.76 1141.75 1528.14 1186.87 1566.88 1186.87C1588.85 1186.87 1608.45 1172.32 1621.3 1149.59C1608.53 1141.88 1595.29 1134.98 1581.66 1128.87Z" fill="#4A7588"/>
<path d="M1353.04 994.231C1319.44 961.217 1095.98 992.151 888.805 984.257C681.621 976.364 490.701 929.631 437.911 967.644C402.984 992.791 403.667 1130.82 409.057 1226.82C421.276 1444.4 461.948 1617.19 524.04 1672.08C616.824 1754.11 1263.17 1785.88 1339.7 1705.87C1416.22 1625.84 1420.22 1060.24 1353.04 994.231Z" fill="#D4EAF2"/>
<path d="M366.907 855.177C366.765 663.151 376.576 473.964 397.416 332.751C346.02 346.658 284.392 381.884 273.828 424.804C256.173 496.524 253.657 690.004 262.453 759.564C267.368 798.431 318.711 835.737 366.907 855.177Z" fill="#22244F"/>
<path d="M270.181 1143.92C306.36 1139.64 340.125 1131.67 373.427 1119.47C371.303 1076.52 369.687 1032.62 368.597 988.284C360.588 989.151 352.764 991.457 344.663 994.911C319.303 1005.22 292.827 1012.6 265.796 1016.9C247.401 1018.79 228.888 1019.06 210.48 1017.24C199.763 1015.28 189.247 1012.47 179.015 1008.72C173.411 1005.95 167.985 1002.84 162.768 999.404C157.315 994.738 152.243 989.684 147.567 984.244C144.063 978.937 140.897 973.444 138.077 967.751C133.801 956.124 130.736 944.124 128.653 931.911C126.489 908.977 127.233 885.897 129.711 863.004C130.92 854.884 132.312 846.791 133.881 838.737C140.412 822.537 145.032 806.604 147.956 791.258C147.987 791.218 148.027 791.191 148.057 791.164C154.495 783.391 160.46 775.071 165.603 766.391C173.519 753.031 181.943 735.444 176.989 719.591C173.439 708.231 163.42 700.577 151.848 698.644C150.617 698.444 149.421 698.324 148.241 698.271C150.952 654.831 154.773 611.298 151.675 567.791C151.064 559.217 144.795 551.871 135.753 551.871C127.609 551.871 119.217 559.164 119.832 567.791C122.537 605.804 119.957 643.831 117.455 681.804C116.293 664.791 113.853 647.831 110.771 631.111C107.085 611.137 102.503 590.991 95.0894 572.031C91.9601 564.031 84.4121 558.457 75.5041 560.911C67.8695 563.004 61.2334 572.444 64.3828 580.497C71.5588 598.844 76.0561 618.311 79.7028 637.631C81.8401 648.964 83.5295 660.124 84.6935 671.417C82.1708 663.764 73.3041 658.418 65.3775 660.991C57.1508 663.644 51.9095 671.964 54.2575 680.577C54.5601 681.684 54.8641 682.804 55.1681 683.911C52.4495 676.497 43.7948 671.418 36.0268 673.924C30.7215 675.644 26.6961 679.724 25.1081 684.697C21.8015 691.831 19.0935 711.711 16.8268 722.338C9.56946 756.351 6.74144 811.271 2.58278 853.564C2.32544 856.177 2.4308 858.564 2.70947 860.831C0.254804 883.164 -0.945216 905.578 0.888117 928.071C5.24545 981.538 20.8241 1029.86 54.9868 1071.67C105.52 1133.52 194.039 1152.92 270.181 1143.92Z" fill="#22244F"/>
<path d="M1396.85 300.204C1326.21 244.804 586.199 236.404 475.196 300.204C364.195 364.018 377.649 815.671 475.196 884.511C572.744 953.364 1316.41 951.684 1396.85 884.511C1477.3 817.351 1467.49 355.618 1396.85 300.204Z" fill="#4A7588"/>
<path d="M492.835 806.097C581.997 863.444 1261.74 862.044 1335.28 806.097C1408.81 750.137 1399.84 365.484 1335.28 319.324C1270.7 273.164 594.296 266.164 492.835 319.324C391.373 372.471 403.671 748.737 492.835 806.097Z" fill="#22244F"/>
<path d="M1182.46 347.044C1131.74 312.724 600.389 307.524 520.685 347.044C440.983 386.564 450.644 666.351 520.685 708.991C590.728 751.631 1124.7 750.591 1182.46 708.991C1240.22 667.391 1233.18 381.364 1182.46 347.044Z" fill="#253473"/>
<path d="M730.243 629.31C735.696 560.697 736.602 491.564 737.426 422.764C737.752 395.431 695.295 395.404 694.967 422.764C694.143 491.564 693.238 560.697 687.784 629.31C686.875 640.75 698.192 650.537 709.013 650.537C721.256 650.537 729.33 640.79 730.243 629.31Z" fill="white"/>
<path d="M1120.24 422.764C1119.41 491.564 1118.5 560.697 1113.05 629.31C1112.14 640.75 1123.46 650.537 1134.28 650.537C1146.53 650.537 1154.6 640.79 1155.52 629.31C1160.97 560.697 1161.88 491.564 1162.69 422.764C1163.02 395.431 1120.57 395.404 1120.24 422.764Z" fill="white"/>
<path d="M993.849 620.857C989.18 620.417 985.037 623.844 984.596 628.51C983.885 635.91 981.523 642.137 977.852 647.591C972.361 655.737 963.681 662.191 952.985 666.604C942.319 671.017 929.743 673.311 917.165 673.297C900.849 673.324 884.584 669.43 872.467 662.244C866.396 658.657 861.361 654.297 857.637 649.257C853.915 644.217 851.444 638.524 850.467 631.844C849.795 627.204 845.488 623.977 840.847 624.657C836.205 625.324 832.987 629.631 833.657 634.271C835.02 643.764 838.7 652.244 843.989 659.377C851.94 670.084 863.303 677.764 876.021 682.791C888.764 687.831 902.961 690.284 917.165 690.284C936.628 690.257 956.173 685.711 971.94 675.937C979.805 671.044 986.721 664.791 991.924 657.097C997.131 649.404 1000.56 640.27 1001.5 630.11C1001.94 625.43 998.516 621.297 993.849 620.857Z" fill="#57C7C8"/>
<path d="M650.147 2037.34C649.459 2035.08 647.084 2033.83 644.841 2034.52C642.6 2035.2 641.34 2037.58 642.028 2039.82C685.768 2182.46 696.073 2346.46 696.064 2488.62C696.064 2546.78 694.345 2601.23 692.505 2649.15C608.648 2569.32 501.005 2542.22 409.247 2538.15C406.903 2538.06 404.92 2539.87 404.816 2542.2C404.712 2544.55 406.527 2546.54 408.869 2546.64C501.343 2550.74 609.509 2578.43 692.067 2660.4C691.408 2677.08 690.751 2692.95 690.165 2707.76C649.068 2685.12 449.988 2578.32 372.337 2590.1C372.313 2590.11 372.28 2590.12 372.256 2590.12C344.667 2594.42 270.373 2664.75 240.595 2746.5C224.499 2790.7 233.44 2860.42 240.595 2878.03C262.271 2931.39 576.187 2856.56 650.171 2818.38C654.688 2816.04 658.749 2813.43 662.484 2810.66C701.181 2781.83 699.761 2731.7 698.324 2716.51C700.664 2655.62 704.556 2576.32 704.556 2488.62C704.548 2346.03 694.285 2181.34 650.147 2037.34Z" fill="#22244F"/>
<path d="M1640.64 2590.12C1640.61 2590.12 1640.58 2590.11 1640.56 2590.1C1562.9 2578.32 1363.82 2685.12 1322.73 2707.76C1322.14 2692.95 1321.49 2677.08 1320.82 2660.4C1403.38 2578.43 1511.56 2550.74 1604.02 2546.64C1606.37 2546.54 1608.18 2544.55 1608.08 2542.2C1607.97 2539.87 1606 2538.06 1603.65 2538.15C1511.89 2542.22 1404.25 2569.32 1320.4 2649.15C1318.54 2601.23 1316.82 2546.78 1316.84 2488.62C1316.82 2346.46 1327.13 2182.46 1370.86 2039.82C1371.56 2037.58 1370.29 2035.2 1368.05 2034.52C1365.81 2033.83 1363.44 2035.08 1362.74 2037.34C1318.61 2181.34 1308.34 2346.03 1308.34 2488.62C1308.34 2576.32 1312.24 2655.62 1314.57 2716.52C1313.13 2731.7 1311.72 2781.83 1350.41 2810.66C1354.14 2813.43 1358.21 2816.04 1362.73 2818.38C1436.7 2856.56 1750.62 2931.39 1772.3 2878.03C1779.45 2860.42 1788.4 2790.7 1772.3 2746.5C1742.52 2664.75 1668.22 2594.42 1640.64 2590.12Z" fill="#22244F"/>
<path d="M1359.14 1972.67C1361.01 1986.88 1362.77 2001.12 1364.45 2015.36C1364.54 2015.34 1364.6 2015.31 1364.6 2015.31L1490.18 2000.23C1479.52 1912.35 1465.46 1824.86 1448.86 1737.94C1413.1 1750.44 1371.3 1760.88 1325.41 1769.26C1338.33 1836.76 1349.78 1904.54 1359.14 1972.67Z" fill="#22244F"/>
<path d="M648.443 2015.36C650.124 2001.14 651.887 1986.91 653.751 1972.7C663.287 1903.26 675.001 1834.18 688.232 1765.38C642.335 1756.16 600.784 1744.74 565.631 1731.1C548.516 1820.34 533.964 1910.04 522.933 2000.26L648.301 2015.31C648.301 2015.31 648.351 2015.34 648.443 2015.36Z" fill="#22244F"/>
<path d="M1612.38 868.697C1619.32 868.097 1626.97 866.711 1635.06 864.644C1689.05 850.817 1762.16 806.324 1768.06 759.564C1776.86 690.004 1774.36 496.524 1756.69 424.804C1744.49 375.204 1664.06 335.857 1610.06 327.844C1603.7 326.911 1597.73 326.417 1592.25 326.377C1577.01 326.271 1565.78 329.778 1561.98 337.698C1545.26 372.631 1557.77 825.578 1579.72 859.684C1584.7 867.431 1596.73 870.044 1612.38 868.697Z" fill="#22244F"/>
<path d="M1731.98 1072.36C1701.42 1048.38 1669.48 1029.2 1634.52 1013.87C1626.3 1010.26 1617.98 1006.8 1609.4 1003.63C1608.44 1003.26 1607.37 1003.06 1606.34 1002.78C1591.85 998.844 1572.54 1002.9 1560.33 1010.04C1547.12 1017.78 1534.52 1032.92 1531.06 1048.11C1527.34 1064.4 1528.14 1082.71 1537.48 1097.18C1546.9 1111.8 1559.24 1120.4 1575.54 1126.44C1577.6 1127.22 1579.62 1128.07 1581.66 1128.87C1595.29 1134.98 1608.53 1141.88 1621.3 1149.59C1624.62 1151.59 1627.92 1153.64 1631.17 1155.76C1636.85 1159.44 1642.4 1163.32 1647.85 1167.35C1661.3 1178.42 1673.78 1190.56 1684.9 1203.98C1691.02 1212.67 1696.45 1221.8 1701.06 1231.38C1703.48 1238.2 1705.41 1245.16 1706.84 1252.26C1707.25 1258.4 1707.26 1264.56 1706.86 1270.72C1705.41 1278.02 1703.45 1285.16 1700.97 1292.18C1695.96 1302.64 1690.02 1312.58 1683.34 1322.06C1668.14 1340.56 1650.72 1357 1632.06 1372.02C1627.53 1375.38 1623.01 1378.75 1618.38 1381.96C1616.92 1382.99 1615.41 1383.94 1613.93 1384.95C1553.24 1411.04 1499.53 1453.3 1499.53 1526.84C1499.53 1581.51 1529.36 1628.46 1572.12 1649.52C1580.44 1653.62 1589.2 1656.8 1598.37 1658.8C1619.81 1664.98 1643.01 1666.52 1665.2 1665.24C1689.36 1663.86 1713.74 1659.27 1735.33 1647.95C1742.94 1643.95 1745.24 1633.34 1741.04 1626.16C1736.53 1618.44 1726.9 1616.44 1719.26 1620.46C1711.97 1624.27 1703.16 1627.26 1693.26 1629.52C1692.42 1629.71 1691.68 1629.84 1690.86 1630.02C1708.4 1623.8 1724.62 1613.96 1738.56 1601.34C1753.77 1587.55 1731.2 1565.08 1716.04 1578.83C1704.5 1589.28 1690.69 1597.24 1675.82 1601.67C1692.74 1591.46 1706.72 1576.64 1716.78 1559.64C1727.25 1541.98 1699.73 1525.94 1689.28 1543.58C1679.56 1559.99 1667.5 1571.43 1649.52 1579.7C1650.49 1560.8 1657.13 1543.94 1681.04 1536.16C1726.14 1521.48 1727.56 1470.5 1727.26 1458.68C1743.08 1445.26 1757.96 1430.87 1771.16 1415.15C1787.12 1396.15 1802.32 1375.98 1812.58 1353.27C1824.32 1327.31 1830.85 1304.04 1833.85 1275.7C1842.25 1196.02 1792.22 1119.66 1731.98 1072.36Z" fill="#22244F"/>
<path d="M726.983 2137.47C695.225 2033.18 651.216 2016.34 648.443 2015.36C648.351 2015.34 648.301 2015.31 648.301 2015.31L522.933 2000.26L519.819 1999.88C519.819 1999.88 459.844 2047.64 426.78 2149.34C396.231 2243.3 379.759 2459.11 372.256 2590.12C372.28 2590.12 372.313 2590.11 372.337 2590.1C449.988 2578.32 649.068 2685.12 690.165 2707.76C690.751 2692.95 691.408 2677.08 692.067 2660.4C609.509 2578.43 501.343 2550.74 408.869 2546.64C406.527 2546.54 404.712 2544.55 404.816 2542.2C404.92 2539.87 406.903 2538.06 409.247 2538.15C501.005 2542.22 608.648 2569.32 692.505 2649.15C694.345 2601.23 696.064 2546.78 696.064 2488.62C696.073 2346.46 685.768 2182.46 642.028 2039.82C641.34 2037.58 642.6 2035.2 644.841 2034.52C647.084 2033.83 649.459 2035.08 650.147 2037.34C694.285 2181.34 704.548 2346.03 704.556 2488.62C704.556 2576.32 700.664 2655.62 698.324 2716.51C699.761 2731.7 701.181 2781.83 662.484 2810.66C715.091 2810.66 797.172 2727.38 794.139 2665.5C794.139 2665.5 750.6 2215.02 726.983 2137.47Z" fill="#BADAE6"/>
<path d="M1586.12 2149.34C1553.05 2047.64 1493.08 1999.88 1493.08 1999.88L1490.18 2000.23L1364.6 2015.31C1364.6 2015.31 1364.54 2015.34 1364.45 2015.36C1361.68 2016.34 1317.68 2033.18 1285.92 2137.47C1262.29 2215.02 1218.76 2665.5 1218.76 2665.5C1215.73 2727.38 1297.81 2810.66 1350.41 2810.66C1311.72 2781.83 1313.13 2731.7 1314.57 2716.52C1312.24 2655.62 1308.34 2576.32 1308.34 2488.62C1308.34 2346.03 1318.61 2181.34 1362.74 2037.34C1363.44 2035.08 1365.81 2033.83 1368.05 2034.52C1370.29 2035.2 1371.56 2037.58 1370.86 2039.82C1327.13 2182.46 1316.82 2346.46 1316.84 2488.62C1316.82 2546.78 1318.54 2601.23 1320.4 2649.15C1404.25 2569.32 1511.89 2542.22 1603.65 2538.15C1606 2538.06 1607.97 2539.87 1608.08 2542.2C1608.18 2544.55 1606.37 2546.54 1604.02 2546.64C1511.56 2550.74 1403.38 2578.43 1320.82 2660.4C1321.49 2677.08 1322.14 2692.95 1322.73 2707.76C1363.82 2685.12 1562.9 2578.32 1640.56 2590.1C1640.58 2590.11 1640.61 2590.12 1640.64 2590.12C1633.13 2459.11 1616.66 2243.3 1586.12 2149.34Z" fill="#BADAE6"/>
<path d="M1579.73 897.071C1596.18 896.524 1609.62 884.324 1612.38 868.697C1596.73 870.044 1584.7 867.431 1579.72 859.684C1557.77 825.578 1545.26 372.631 1561.98 337.698C1565.78 329.778 1577.01 326.271 1592.25 326.377C1586.58 314.311 1574.12 306.098 1560.01 306.564C1541.14 307.191 1526.21 323.151 1526.84 342.031L1544.26 863.897C1544.89 882.777 1560.85 897.698 1579.73 897.071Z" fill="#4A7588"/>
<path d="M1105.72 1086.61C1099.84 1087.35 1092.31 1091.08 1088.82 1095C1085.57 1098.61 1082.45 1105.17 1081.04 1111.05C1080.06 1115.27 1080 1120.9 1080 1178.71C1080 1245.03 1080.18 1249.81 1082.82 1264.14C1088.63 1295 1098.8 1311.41 1117.97 1320.78C1126.23 1324.82 1132.3 1326.23 1141.54 1326.29C1147.05 1326.29 1150.48 1325.99 1153.79 1325.13C1166.89 1321.88 1178.1 1313.62 1186.8 1300.88C1189.74 1296.59 1194.82 1287.53 1194.82 1286.55C1194.82 1286.43 1190.47 1286.18 1185.2 1286.06C1176.81 1285.75 1174.86 1285.51 1170.69 1284.1C1164.38 1281.96 1161.2 1280.06 1157.16 1275.83C1151.59 1270.2 1147.36 1260.22 1145.16 1247.6C1144.67 1244.91 1144.3 1222.86 1144.05 1179.63C1143.62 1116.68 1143.56 1115.58 1142.28 1110.62C1138.48 1096.04 1129.97 1088.08 1116.74 1086.55C1113.68 1086.24 1110.99 1086 1110.62 1086C1110.31 1086.06 1108.11 1086.31 1105.72 1086.61Z" fill="black"/>
<path d="M1248.71 1086.61C1235.72 1088.14 1227.46 1095.92 1223.48 1110.31C1222.19 1114.96 1222.13 1115.94 1221.76 1182.69C1221.33 1255.07 1221.33 1254.4 1218.09 1269.04C1211.6 1298.06 1195.98 1317.72 1170.94 1328.13C1161.44 1332.11 1147.79 1335.29 1136.03 1336.27L1130.21 1336.76L1132.66 1338.05C1137.87 1340.81 1154.46 1344.79 1166.34 1346.13C1174.49 1347.11 1194.63 1346.99 1202.66 1345.89C1223.11 1343.19 1238.17 1336.95 1251.77 1325.56C1268.36 1311.72 1279.39 1288.57 1283.61 1258.75C1285.75 1243.62 1286.18 1228.13 1285.94 1170.45C1285.69 1116.86 1285.63 1115.52 1284.41 1110.74C1282.82 1104.86 1281.65 1101.92 1279.45 1098.61C1275.1 1092 1267.81 1087.65 1259.12 1086.61C1256.3 1086.24 1253.67 1086 1253.3 1086C1252.99 1086.06 1250.91 1086.31 1248.71 1086.61Z" fill="black"/>
</svg>
