<svg width="19" height="19" viewBox="0 0 19 19" fill="none" xmlns="http://www.w3.org/2000/svg">
<g clip-path="url(#clip0_198_2411)">
<path d="M4.7268 0.59375C2.44725 0.59375 0.606726 2.44286 0.603018 4.72623L0.593756 10.4376C0.590164 12.6202 2.28177 14.3861 4.42008 14.5411V18.1094C4.41999 18.1682 4.43737 18.2257 4.47002 18.2747C4.50267 18.3236 4.54913 18.3617 4.60348 18.3842C4.65783 18.4067 4.71764 18.4125 4.77532 18.401C4.833 18.3894 4.88594 18.361 4.92743 18.3193L8.66679 14.5706H14.2831C16.5626 14.5706 18.4063 12.722 18.4063 10.4382V4.72681C18.4062 2.44378 16.5719 0.59375 14.2923 0.59375H4.7268ZM6.53182 6.69244C7.02017 6.69244 7.42187 7.09475 7.42187 7.58307C7.42186 8.07138 7.02016 8.47369 6.53182 8.47369C6.04348 8.47369 5.6412 8.07138 5.6412 7.58307C5.64119 7.09475 6.04347 6.69244 6.53182 6.69244ZM9.49999 6.69244C9.98834 6.69244 10.3906 7.09475 10.3906 7.58307C10.3906 8.07138 9.98834 8.47369 9.49999 8.47369C9.01164 8.47369 8.60937 8.07138 8.60937 7.58307C8.60936 7.09475 9.01163 6.69244 9.49999 6.69244ZM12.4693 6.69244C12.9577 6.69244 13.36 7.09475 13.3599 7.58307C13.3599 8.07138 12.9577 8.47369 12.4693 8.47369C11.981 8.47369 11.5781 8.07138 11.5781 7.58307C11.5781 7.09475 11.981 6.69244 12.4693 6.69244Z" fill="#2CCAA1"/>
</g>
<defs>
<clipPath id="clip0_198_2411">
<rect width="19" height="19" fill="white"/>
</clipPath>
</defs>
</svg>
