<svg width="15" height="15" viewBox="0 0 15 15" fill="none" xmlns="http://www.w3.org/2000/svg">
<g clip-path="url(#clip0_200_3308)">
<path d="M13.7286 1.57144C12.0846 -0.03714 9.45643 -0.03679 7.81284 1.57223L0.919479 8.46562C-0.326978 9.74146 -0.303156 11.7862 0.972687 13.0326C2.22754 14.2586 4.23163 14.2586 5.48648 13.0326L11.7285 6.79057C12.54 5.9791 12.54 4.66341 11.7285 3.85193C10.9171 3.04045 9.60136 3.04045 8.78988 3.85193L2.81922 9.82256C2.61097 10.0382 2.61695 10.3818 2.83258 10.5901C3.04293 10.7932 3.37639 10.7932 3.58674 10.5901L9.55737 4.61942C9.9533 4.24013 10.5817 4.25364 10.961 4.64957C11.3288 5.03354 11.3288 5.63912 10.961 6.02308L4.71899 12.2651C3.87574 13.0964 2.51826 13.0866 1.687 12.2434C0.86414 11.4087 0.86414 10.0678 1.687 9.23311L8.58036 2.33972C9.80824 1.11139 11.7994 1.11104 13.0277 2.33889C14.256 3.56675 14.2564 5.55789 13.0285 6.78622L6.13512 13.6796C5.90744 13.8746 5.88091 14.2172 6.0759 14.4449C6.27089 14.6726 6.61354 14.6991 6.84123 14.5042C6.86247 14.486 6.88226 14.4662 6.90045 14.4449L13.7938 7.55154C15.4272 5.88219 15.398 3.20479 13.7286 1.57144Z" fill="#568CE1"/>
</g>
<defs>
<clipPath id="clip0_200_3308">
<rect width="15" height="15" fill="white"/>
</clipPath>
</defs>
</svg>
