<svg width="19" height="19" viewBox="0 0 19 19" fill="none" xmlns="http://www.w3.org/2000/svg">
<g clip-path="url(#clip0_198_2376)">
<path d="M17.4035 8.61482C16.9664 8.61482 16.6119 8.26025 16.6119 7.8232C16.6119 5.60258 15.7473 3.51576 14.1774 1.94499C13.8679 1.6355 13.8679 1.13525 14.1774 0.825621C14.4869 0.516134 14.9873 0.516134 15.2968 0.825621C17.166 2.69472 18.1951 5.17988 18.1951 7.8232C18.1951 8.26025 17.8405 8.61482 17.4035 8.61482Z" fill="#C3C3C3"/>
<path d="M1.57092 8.61482C1.13401 8.61482 0.779297 8.26025 0.779297 7.8232C0.779297 5.17988 1.8085 2.69472 3.6776 0.825621C3.98708 0.516134 4.48748 0.516134 4.79697 0.825621C5.1066 1.13525 5.1066 1.6355 4.79697 1.94499C3.22707 3.51489 2.36268 5.60258 2.36268 7.8232C2.36268 8.26025 2.00797 8.61482 1.57092 8.61482Z" fill="#C3C3C3"/>
<path d="M16.9121 13.3895C15.7151 12.3777 15.0287 10.8988 15.0287 9.33214V7.125C15.0287 4.33919 12.9593 2.03304 10.2787 1.64673V0.791618C10.2787 0.353844 9.92398 0 9.48708 0C9.05003 0 8.69531 0.353844 8.69531 0.791618V1.64673C6.01402 2.03304 3.94531 4.33919 3.94531 7.125V9.33214C3.94531 10.8988 3.25893 12.3777 2.05491 13.3958C1.74687 13.6594 1.57031 14.0426 1.57031 14.4479C1.57031 15.2119 2.19175 15.8334 2.95583 15.8334H16.0183C16.7823 15.8334 17.4037 15.2119 17.4037 14.4479C17.4037 14.0426 17.2271 13.6594 16.9121 13.3895Z" fill="#C3C3C3"/>
<path d="M9.48672 19C10.9204 19 12.1197 17.9779 12.3953 16.625H6.57812C6.85355 17.9779 8.05293 19 9.48672 19Z" fill="#C3C3C3"/>
</g>
<defs>
<clipPath id="clip0_198_2376">
<rect width="19" height="19" fill="white"/>
</clipPath>
</defs>
</svg>
