<svg width="14" height="14" viewBox="0 0 14 14" fill="none" xmlns="http://www.w3.org/2000/svg">
<g clip-path="url(#clip0_175_1575)">
<path d="M3.27188 2.83871L8.85301 1.3153L8.55745 0.717883C8.36407 0.329562 7.89243 0.169203 7.50411 0.362577L2.50781 2.83871H3.27188Z" fill="white"/>
<path d="M10.5855 1.35938C10.5163 1.35938 10.4471 1.36881 10.3779 1.38767L9.06678 1.74612L5.0625 2.83877H9.60759H11.5885L11.3432 1.9395C11.2489 1.58891 10.9313 1.35938 10.5855 1.35938Z" fill="white"/>
<path d="M12.4074 3.38892H12.2282H11.9845H11.7408H9.88097H3.04683H2.1507H1.39607H1.25615H0.787647C0.539248 3.38892 0.317574 3.50368 0.172937 3.68448C0.106906 3.7678 0.0565974 3.86371 0.0282987 3.96904C0.0110051 4.03507 0 4.10424 0 4.17499V4.26932V5.16545V12.9334C0 13.3674 0.352162 13.7195 0.786075 13.7195H12.4058C12.8398 13.7195 13.1919 13.3674 13.1919 12.9334V10.7403H8.52734C7.79001 10.7403 7.19102 10.1413 7.19102 9.40396V8.68392V8.44024V8.19655V7.65573C7.19102 7.29414 7.33564 6.96557 7.5699 6.72503C7.77743 6.51121 8.0557 6.36657 8.36699 6.33041C8.41887 6.32414 8.47232 6.32098 8.52577 6.32098H12.5379H12.7816H13.0253H13.1919V4.17499C13.1935 3.74108 12.8413 3.38892 12.4074 3.38892Z" fill="white"/>
<path d="M13.7427 7.07264C13.6641 7.00032 13.5713 6.94529 13.4676 6.90913C13.3874 6.88242 13.3025 6.8667 13.2129 6.8667H13.1925H13.1767H12.933H12.0542H8.52631C8.09238 6.8667 7.74023 7.21885 7.74023 7.65277V8.04422V8.28791V8.53159V9.40256C7.74023 9.83648 8.09238 10.1886 8.52631 10.1886H13.1925H13.2129C13.3025 10.1886 13.3874 10.1729 13.4676 10.1462C13.5713 10.1116 13.6641 10.055 13.7427 9.98269C13.8999 9.83962 13.999 9.6321 13.999 9.40258V7.65277C13.999 7.42322 13.8999 7.21569 13.7427 7.07264ZM10.1676 8.68409C10.1676 8.90105 9.99155 9.07713 9.7746 9.07713H9.51362C9.29666 9.07713 9.12058 8.90105 9.12058 8.68409V8.42311C9.12058 8.29734 9.17875 8.1857 9.27151 8.11496C9.33911 8.06307 9.42245 8.03008 9.51362 8.03008H9.57965H9.7746C9.99155 8.03008 10.1676 8.20614 10.1676 8.42311V8.68409Z" fill="white"/>
</g>
<defs>
<clipPath id="clip0_175_1575">
<rect width="14" height="14" fill="white"/>
</clipPath>
</defs>
</svg>
