<svg width="19" height="19" viewBox="0 0 19 19" fill="none" xmlns="http://www.w3.org/2000/svg">
<g clip-path="url(#clip0_198_2381)">
<path d="M4.43929 3.85245L12.0137 1.78496L11.6126 0.974183C11.3501 0.447176 10.71 0.229545 10.183 0.491982L3.40234 3.85245H4.43929Z" fill="#2CCAA1"/>
<path d="M14.3665 1.84473C14.2727 1.84473 14.1788 1.85753 14.0849 1.88313L12.3055 2.3696L6.87109 3.85248H13.0394H15.7278L15.395 2.63204C15.2669 2.15624 14.8359 1.84473 14.3665 1.84473Z" fill="#2CCAA1"/>
<path d="M16.8386 4.59912H16.5954H16.2647H15.934H13.4099H4.13498H2.91881H1.89467H1.70477H1.06895C0.731836 4.59912 0.430994 4.75488 0.2347 5.00024C0.145087 5.11333 0.0768108 5.24348 0.0384054 5.38643C0.0149354 5.47604 0 5.56992 0 5.66594V5.79396V7.01013V17.5524C0 18.1413 0.477934 18.6192 1.06682 18.6192H16.8365C17.4254 18.6192 17.9033 18.1413 17.9033 17.5524V14.576H11.5728C10.5722 14.576 9.75924 13.7631 9.75924 12.7624V11.7852V11.4545V11.1238V10.3898C9.75924 9.89907 9.95551 9.45316 10.2734 9.12671C10.5551 8.83652 10.9327 8.64022 11.3552 8.59115C11.4256 8.58263 11.4981 8.57835 11.5707 8.57835H17.0157H17.3464H17.6771H17.9033V5.66594C17.9054 5.07705 17.4275 4.59912 16.8386 4.59912Z" fill="#2CCAA1"/>
<path d="M18.6521 9.59858C18.5454 9.50043 18.4195 9.42575 18.2787 9.37668C18.1698 9.34043 18.0547 9.31909 17.933 9.31909H17.9053H17.884H17.5532H16.3605H11.5727C10.9838 9.31909 10.5059 9.797 10.5059 10.3859V10.9172V11.2479V11.5786V12.7606C10.5059 13.3495 10.9838 13.8274 11.5727 13.8274H17.9053H17.933C18.0547 13.8274 18.1699 13.8061 18.2787 13.7698C18.4195 13.7229 18.5454 13.6461 18.6521 13.5479C18.8654 13.3538 18.9999 13.0721 18.9999 12.7606V10.3859C18.9999 10.0744 18.8654 9.79272 18.6521 9.59858ZM13.8002 11.7855C13.8002 12.08 13.5612 12.319 13.2668 12.319H12.9126C12.6182 12.319 12.3792 12.08 12.3792 11.7855V11.4314C12.3792 11.2607 12.4581 11.1092 12.584 11.0132C12.6758 10.9427 12.7889 10.898 12.9126 10.898H13.0022H13.2668C13.5612 10.898 13.8002 11.1369 13.8002 11.4314V11.7855Z" fill="#2CCAA1"/>
</g>
<defs>
<clipPath id="clip0_198_2381">
<rect width="19" height="19" fill="white"/>
</clipPath>
</defs>
</svg>
