<svg width="21" height="21" viewBox="0 0 21 21" fill="none" xmlns="http://www.w3.org/2000/svg">
<path d="M3.21232 2.47852C3.21175 2.47852 3.21112 2.47852 3.21055 2.47852C3.01193 2.47852 2.82512 2.55594 2.68406 2.69665C2.54145 2.83891 2.46289 3.02834 2.46289 3.22999V14.4983C2.46289 14.9115 2.80038 15.2485 3.21529 15.2495C4.96444 15.2537 7.89498 15.6183 9.91664 17.7339V5.94134C9.91664 5.80126 9.88087 5.66968 9.81334 5.56079C8.15405 2.88862 4.96543 2.48262 3.21232 2.47852Z" fill="#2CCAA1"/>
<path d="M18.5357 14.4983V3.22999C18.5357 3.02834 18.4572 2.83891 18.3145 2.69665C18.1735 2.55594 17.9865 2.47852 17.7881 2.47852C17.7875 2.47852 17.7869 2.47852 17.7863 2.47852C16.0332 2.48269 12.8446 2.88869 11.1853 5.56086C11.1177 5.66975 11.082 5.80133 11.082 5.94141V17.7339C13.1037 15.6183 16.0342 15.2537 17.7834 15.2495C18.1982 15.2485 18.5357 14.9115 18.5357 14.4983Z" fill="#2CCAA1"/>
<path d="M20.2486 5.07715H19.7038V14.4983C19.7038 15.5533 18.8442 16.4136 17.7875 16.4162C16.3039 16.4197 13.8575 16.7098 12.125 18.3496C15.1214 17.616 18.2802 18.0929 20.0804 18.5031C20.3052 18.5543 20.5375 18.5014 20.7176 18.3579C20.897 18.2147 21 18.0007 21 17.7709V5.82848C21 5.41421 20.6629 5.07715 20.2486 5.07715Z" fill="#2CCAA1"/>
<path d="M1.29621 14.4983V5.07715H0.751336C0.337133 5.07715 0 5.41421 0 5.82848V17.7707C0 18.0005 0.10295 18.2145 0.282405 18.3577C0.462355 18.5011 0.694417 18.5542 0.919549 18.5029C2.71976 18.0926 5.87861 17.6157 8.8749 18.3494C7.14243 16.7097 4.6961 16.4197 3.21245 16.4161C2.15587 16.4136 1.29621 15.5533 1.29621 14.4983Z" fill="#2CCAA1"/>
</svg>
