<svg width="19" height="19" viewBox="0 0 19 19" fill="none" xmlns="http://www.w3.org/2000/svg">
<g clip-path="url(#clip0_198_2369)">
<path d="M11.8749 10.2915C11.4371 10.2915 11.0833 10.6462 11.0833 11.0831V14.2499C11.0833 14.686 10.7286 15.0415 10.2915 15.0415H7.91654V3.16659C7.91654 2.49051 7.48587 1.88647 6.83835 1.66164L6.60395 1.58322H10.2915C10.7286 1.58322 11.0833 1.93865 11.0833 2.37498V4.74995C11.0833 5.18685 11.4371 5.54156 11.8749 5.54156C12.3126 5.54156 12.6665 5.18685 12.6665 4.74995V2.37498C12.6665 1.06558 11.6009 0 10.2915 0H1.78123C1.75108 0 1.72586 0.013481 1.69658 0.0173948C1.65845 0.0142058 1.62207 0 1.58337 0C0.710144 0 0 0.709999 0 1.58322V15.8331C0 16.5092 0.430667 17.1132 1.07819 17.338L5.84249 18.9262C6.00397 18.976 6.16459 18.9998 6.33332 18.9998C7.20654 18.9998 7.91654 18.2897 7.91654 17.4164V16.6248H10.2915C11.6009 16.6248 12.6665 15.5592 12.6665 14.2499V11.0831C12.6665 10.6462 12.3126 10.2915 11.8749 10.2915Z" fill="#C3C3C3"/>
<path d="M18.7674 7.35676L15.6006 4.19018C15.3744 3.96376 15.0339 3.89563 14.7379 4.01826C14.4426 4.14104 14.2494 4.42994 14.2494 4.74986V7.12483H11.0828C10.6457 7.12483 10.291 7.4794 10.291 7.91644C10.291 8.35349 10.6457 8.70805 11.0828 8.70805H14.2494V11.083C14.2494 11.4029 14.4426 11.6918 14.7379 11.8146C15.0339 11.9373 15.3744 11.8691 15.6006 11.6429L18.7674 8.47612C19.0769 8.16664 19.0769 7.66625 18.7674 7.35676Z" fill="#C3C3C3"/>
</g>
<defs>
<clipPath id="clip0_198_2369">
<rect width="19" height="19" fill="white"/>
</clipPath>
</defs>
</svg>
