<svg width="26" height="26" viewBox="0 0 26 26" fill="none" xmlns="http://www.w3.org/2000/svg">
<g clip-path="url(#clip0_198_2714)">
<path d="M6.46825 0.8125C3.34886 0.8125 0.830257 3.34286 0.825183 6.46747L0.812508 14.283C0.807593 17.2697 3.12242 19.6863 6.04853 19.8983V24.7812C6.0484 24.8617 6.07219 24.9405 6.11687 25.0074C6.16155 25.0744 6.22512 25.1265 6.2995 25.1573C6.37388 25.1881 6.45572 25.1961 6.53465 25.1803C6.61357 25.1644 6.68602 25.1255 6.7428 25.0685L11.8598 19.9388H19.5452C22.6646 19.9388 25.1875 17.409 25.1875 14.2838V6.46826C25.1875 3.34412 22.6773 0.8125 19.5579 0.8125H6.46825ZM8.93828 9.15808C9.60655 9.15808 10.1562 9.70861 10.1562 10.3768C10.1562 11.0451 9.60654 11.5956 8.93828 11.5956C8.27002 11.5956 7.71954 11.0451 7.71953 10.3768C7.71953 9.70861 8.27001 9.15808 8.93828 9.15808ZM13 9.15808C13.6683 9.15808 14.2187 9.70861 14.2187 10.3768C14.2187 11.0451 13.6682 11.5956 13 11.5956C12.3317 11.5956 11.7812 11.0451 11.7812 10.3768C11.7812 9.70861 12.3317 9.15808 13 9.15808ZM17.0633 9.15808C17.7316 9.15808 18.282 9.70861 18.282 10.3768C18.282 11.0451 17.7315 11.5956 17.0633 11.5956C16.395 11.5956 15.8437 11.0451 15.8437 10.3768C15.8437 9.70861 16.395 9.15808 17.0633 9.15808Z" fill="#568CE1"/>
</g>
<defs>
<clipPath id="clip0_198_2714">
<rect width="26" height="26" fill="white"/>
</clipPath>
</defs>
</svg>
