<svg width="19" height="19" viewBox="0 0 19 19" fill="none" xmlns="http://www.w3.org/2000/svg">
<path d="M15.4376 8.90625C15.2801 8.90625 15.1291 8.96881 15.0177 9.08016C14.9064 9.19151 14.8438 9.34253 14.8438 9.5C14.8438 10.9173 14.2808 12.2765 13.2787 13.2786C12.2765 14.2807 10.9173 14.8438 9.50006 14.8438C8.08281 14.8438 6.7236 14.2807 5.72145 13.2786C4.71931 12.2765 4.15631 10.9173 4.15631 9.5C4.15631 9.34253 4.09375 9.19151 3.9824 9.08016C3.87105 8.96881 3.72003 8.90625 3.56256 8.90625C3.40508 8.90625 3.25406 8.96881 3.14271 9.08016C3.03136 9.19151 2.96881 9.34253 2.96881 9.5C2.96204 11.1341 3.56806 12.7113 4.66727 13.9204C5.76647 15.1296 7.27899 15.8827 8.90631 16.0312V17.8125C8.90631 17.97 8.96886 18.121 9.08021 18.2323C9.19156 18.3437 9.34258 18.4062 9.50006 18.4062C9.65753 18.4062 9.80855 18.3437 9.9199 18.2323C10.0313 18.121 10.0938 17.97 10.0938 17.8125V16.0312C11.7211 15.8827 13.2336 15.1296 14.3328 13.9204C15.432 12.7113 16.0381 11.1341 16.0313 9.5C16.0313 9.34253 15.9688 9.19151 15.8574 9.08016C15.7461 8.96881 15.595 8.90625 15.4376 8.90625Z" fill="white"/>
<path d="M9.5957 12.4688C10.5405 12.4688 11.4467 12.0934 12.1148 11.4253C12.7829 10.7572 13.1582 9.85108 13.1582 8.90625V4.15625C13.1582 3.21142 12.7829 2.30528 12.1148 1.63718C11.4467 0.969084 10.5405 0.59375 9.5957 0.59375C8.65087 0.59375 7.74473 0.969084 7.07664 1.63718C6.40854 2.30528 6.0332 3.21142 6.0332 4.15625V8.90625C6.0332 9.85108 6.40854 10.7572 7.07664 11.4253C7.74473 12.0934 8.65087 12.4688 9.5957 12.4688Z" fill="white"/>
</svg>
