<svg width="26" height="26" viewBox="0 0 26 26" fill="none" xmlns="http://www.w3.org/2000/svg">
<path d="M23.7331 9.6199C23.259 9.55103 22.8066 9.3761 22.4094 9.10812C22.0123 8.84015 21.6808 8.48604 21.4395 8.07216C21.1982 7.65828 21.0533 7.1953 21.0158 6.7177C20.9782 6.24009 21.0489 5.76016 21.2225 5.31365C21.3329 5.02174 21.3492 4.70261 21.269 4.40099C21.1889 4.09937 21.0164 3.8304 20.7756 3.63177C19.7129 2.73938 18.5033 2.03833 17.2006 1.5599C16.904 1.44971 16.5802 1.43594 16.2753 1.52056C15.9704 1.60517 15.6999 1.78386 15.5025 2.03115C15.2054 2.41112 14.8256 2.71843 14.392 2.92978C13.9584 3.14114 13.4824 3.25098 13 3.25098C12.5177 3.25098 12.0416 3.14114 11.608 2.92978C11.1744 2.71843 10.7947 2.41112 10.4975 2.03115C10.3001 1.78386 10.0297 1.60517 9.72476 1.52056C9.41985 1.43594 9.09602 1.44971 8.79939 1.5599C7.59662 2.00161 6.47206 2.63246 5.46814 3.42865C5.21508 3.62898 5.03281 3.90507 4.94801 4.21649C4.86321 4.52791 4.88034 4.8583 4.99689 5.15927C5.18438 5.6176 5.26184 6.11348 5.22307 6.60715C5.1843 7.10082 5.03036 7.57853 4.77362 8.00196C4.51687 8.42539 4.16447 8.78275 3.74466 9.04538C3.32486 9.30802 2.84935 9.46861 2.35627 9.51427C2.03615 9.5485 1.73548 9.68461 1.49852 9.90255C1.26156 10.1205 1.10084 10.4088 1.04002 10.7249C0.888728 11.4738 0.812518 12.2359 0.812518 12.9999C0.811406 13.6395 0.863039 14.2781 0.966893 14.9093C1.01858 15.2356 1.17631 15.5357 1.4157 15.7634C1.65509 15.991 1.96281 16.1334 2.29127 16.1686C2.79518 16.2159 3.28043 16.3832 3.7064 16.6566C4.13238 16.9299 4.48669 17.3013 4.73968 17.7396C4.99267 18.178 5.13698 18.6705 5.16052 19.1761C5.18407 19.6817 5.08617 20.1856 4.87502 20.6455C4.73683 20.9447 4.70256 21.2815 4.77763 21.6024C4.8527 21.9233 5.03282 22.2099 5.28939 22.4168C6.34574 23.293 7.54373 23.9826 8.83189 24.4562C8.99662 24.5132 9.16945 24.5434 9.34377 24.5455C9.58278 24.545 9.81819 24.4872 10.0302 24.3769C10.2423 24.2666 10.4248 24.1071 10.5625 23.9118C10.8521 23.4899 11.2403 23.145 11.6934 22.9071C12.1465 22.6692 12.6508 22.5456 13.1625 22.5468C13.6583 22.5474 14.1472 22.6638 14.5901 22.8867C15.033 23.1095 15.4178 23.4327 15.7138 23.8305C15.9106 24.0952 16.1895 24.2873 16.5069 24.3769C16.8244 24.4666 17.1625 24.4487 17.4688 24.3262C18.6466 23.8521 19.7432 23.1969 20.7188 22.3843C20.9638 22.1817 21.1383 21.9065 21.2172 21.5985C21.296 21.2904 21.2751 20.9653 21.1575 20.6699C20.9664 20.2175 20.8831 19.7268 20.9141 19.2367C20.9451 18.7466 21.0897 18.2703 21.3363 17.8456C21.5829 17.4209 21.9249 17.0594 22.3352 16.7895C22.7456 16.5196 23.213 16.3488 23.7006 16.2905C24.0169 16.2468 24.3109 16.1035 24.5403 15.8815C24.7696 15.6595 24.9223 15.3702 24.9763 15.0555C25.1068 14.3778 25.1774 13.69 25.1875 12.9999C25.1877 12.272 25.1197 11.5457 24.9844 10.8305C24.9295 10.5228 24.7791 10.2402 24.5545 10.0229C24.3299 9.8056 24.0425 9.66458 23.7331 9.6199ZM17.0625 12.9999C17.0625 13.8034 16.8243 14.5888 16.3779 15.2569C15.9315 15.925 15.297 16.4457 14.5547 16.7532C13.8123 17.0606 12.9955 17.1411 12.2075 16.9843C11.4194 16.8276 10.6955 16.4407 10.1274 15.8725C9.55925 15.3044 9.17233 14.5805 9.01558 13.7925C8.85882 13.0044 8.93928 12.1876 9.24676 11.4452C9.55424 10.7029 10.0749 10.0684 10.743 9.62206C11.4111 9.17566 12.1965 8.9374 13 8.9374C14.0775 8.9374 15.1108 9.36541 15.8726 10.1273C16.6345 10.8891 17.0625 11.9225 17.0625 12.9999Z" fill="#568CE1"/>
</svg>
