<svg width="19" height="19" viewBox="0 0 19 19" fill="none" xmlns="http://www.w3.org/2000/svg">
<path d="M9.5 0C4.26168 0 0 4.26168 0 9.5C0 14.7383 4.26168 19 9.5 19C14.7383 19 19 14.7383 19 9.5C19 4.26168 14.7383 0 9.5 0ZM9.5 17.8125C4.91647 17.8125 1.1875 14.0835 1.1875 9.5C1.1875 4.91647 4.91647 1.1875 9.5 1.1875C14.0835 1.1875 17.8125 4.91647 17.8125 9.5C17.8125 14.0835 14.0835 17.8125 9.5 17.8125ZM14.5044 12.3945C13.4664 14.1923 11.5956 15.2656 9.50015 15.2656C7.40462 15.2657 5.53375 14.1924 4.49562 12.3945C4.33163 12.1106 4.42889 11.7474 4.71285 11.5835C4.99689 11.4195 5.36 11.5168 5.52392 11.8007C6.34741 13.2268 7.83386 14.0782 9.50011 14.0781C11.1663 14.0781 12.6526 13.2267 13.476 11.8007C13.64 11.5167 14.0031 11.4194 14.2871 11.5834C14.5711 11.7474 14.6684 12.1105 14.5044 12.3945ZM4.40407 7.15999C4.40407 6.50494 4.93699 5.97197 5.59209 5.97197C6.24718 5.97197 6.78011 6.5049 6.78011 7.15999C6.78011 7.81509 6.24718 8.34801 5.59209 8.34801C4.93699 8.34801 4.40407 7.81509 4.40407 7.15999ZM14.596 7.15999C14.596 7.81505 14.063 8.34801 13.408 8.34801C12.7529 8.34801 12.2199 7.81509 12.2199 7.15999C12.2199 6.5049 12.7529 5.97197 13.408 5.97197C14.063 5.97201 14.596 6.50494 14.596 7.15999Z" fill="#568CE1"/>
</svg>
