<svg width="14" height="14" viewBox="0 0 14 14" fill="none" xmlns="http://www.w3.org/2000/svg">
<g clip-path="url(#clip0_220_7714)">
<path d="M9.48242 4.51848C8.85279 3.88885 7.9639 3.48145 7.00094 3.48145C6.03798 3.48145 5.14909 3.87033 4.51946 4.51848C3.88983 5.14811 3.48242 6.037 3.48242 6.99996C3.48242 7.96293 3.88983 8.85182 4.51946 9.48145C5.14909 10.1111 6.03798 10.5185 7.00094 10.5185C7.9639 10.5185 8.85279 10.1296 9.48242 9.48145C10.1121 8.85182 10.5195 7.96293 10.5195 6.99996C10.5195 6.037 10.1306 5.14811 9.48242 4.51848Z" fill="#FFB802"/>
<path d="M6.99906 2.38889C7.25832 2.38889 7.48054 2.16667 7.48054 1.90741V0.481481C7.48054 0.222222 7.25832 0 6.99906 0C6.7398 0 6.51758 0.222222 6.51758 0.481481V1.90741C6.51758 2.16667 6.7398 2.38889 6.99906 2.38889Z" fill="#FFB802"/>
<path d="M10.9442 3.74082L11.9627 2.7223C12.1479 2.53712 12.1479 2.24082 11.9627 2.05564C11.7776 1.87045 11.4813 1.87045 11.2961 2.05564L10.2776 3.07416C10.0924 3.25934 10.0924 3.55564 10.2776 3.74082C10.4442 3.92601 10.7405 3.92601 10.9442 3.74082Z" fill="#FFB802"/>
<path d="M13.5187 6.51855H12.0928C11.8336 6.51855 11.6113 6.74078 11.6113 7.00004C11.6113 7.2593 11.8336 7.48152 12.0928 7.48152H13.5187C13.778 7.48152 14.0002 7.2593 14.0002 7.00004C14.0002 6.74078 13.778 6.51855 13.5187 6.51855Z" fill="#FFB802"/>
<path d="M10.9266 10.2593C10.7415 10.0741 10.4452 10.0741 10.26 10.2593C10.0748 10.4444 10.0748 10.7407 10.26 10.9259L11.2785 11.9444C11.4637 12.1296 11.76 12.1296 11.9452 11.9444C12.1304 11.7593 12.1304 11.463 11.9452 11.2778L10.9266 10.2593Z" fill="#FFB802"/>
<path d="M6.99906 11.6111C6.7398 11.6111 6.51758 11.8333 6.51758 12.0926V13.5185C6.51758 13.7778 6.7398 14 6.99906 14C7.25832 14 7.48054 13.7778 7.48054 13.5185V12.0926C7.48054 11.8333 7.25832 11.6111 6.99906 11.6111Z" fill="#FFB802"/>
<path d="M3.05584 10.2593L2.03733 11.2778C1.85214 11.463 1.85214 11.7593 2.03733 11.9444C2.22251 12.1296 2.51881 12.1296 2.70399 11.9444L3.72251 10.9259C3.9077 10.7407 3.9077 10.4444 3.72251 10.2593C3.55584 10.0741 3.25955 10.0741 3.05584 10.2593Z" fill="#FFB802"/>
<path d="M2.38889 7.00004C2.38889 6.74078 2.16667 6.51855 1.90741 6.51855H0.481481C0.222222 6.51855 0 6.74078 0 7.00004C0 7.2593 0.222222 7.48152 0.481481 7.48152H1.90741C2.16667 7.48152 2.38889 7.2593 2.38889 7.00004Z" fill="#FFB802"/>
<path d="M3.05584 3.74082C3.24103 3.92601 3.53733 3.92601 3.72251 3.74082C3.9077 3.55564 3.9077 3.25934 3.72251 3.07416L2.70399 2.05564C2.51881 1.87045 2.22251 1.87045 2.03733 2.05564C1.85214 2.24082 1.85214 2.53712 2.03733 2.7223L3.05584 3.74082Z" fill="#FFB802"/>
</g>
<defs>
<clipPath id="clip0_220_7714">
<rect width="14" height="14" fill="white"/>
</clipPath>
</defs>
</svg>
