<svg width="21" height="21" viewBox="0 0 21 21" fill="none" xmlns="http://www.w3.org/2000/svg">
<path fill-rule="evenodd" clip-rule="evenodd" d="M10.7388 2.83023C9.24642 2.78053 7.73862 3.18769 6.43685 4.05663C4.97478 5.03359 3.95302 6.47629 3.48238 8.08909C3.35242 8.07323 3.19678 8.08023 3.01198 8.13249C2.32202 8.32826 1.80308 8.89363 1.56975 9.39156C1.26712 10.0405 1.13948 10.8987 1.27412 11.7846C1.40782 12.6678 1.78092 13.3958 2.24758 13.8478C2.71565 14.3 3.24415 14.447 3.76915 14.3366C4.55082 14.1698 4.93838 14.0449 4.82895 13.3167L4.29905 9.78659C4.40592 7.87606 5.39502 6.07753 7.04935 4.97153C9.26368 3.49243 12.1668 3.58716 14.279 5.20859C15.7483 6.33513 16.6013 8.02306 16.6998 9.79499L16.3293 12.2644C15.5028 14.5261 13.4539 16.0927 11.083 16.315H9.50425C9.09685 16.315 8.76878 16.6431 8.76878 17.05V17.4378C8.76878 17.845 9.09685 18.1731 9.50425 18.1731H11.4948C11.902 18.1731 12.2287 17.845 12.2287 17.4378V17.2351C14.0165 16.7987 15.577 15.7 16.5931 14.1677L17.2309 14.3368C17.7498 14.4715 18.2846 14.3 18.7524 13.848C19.2191 13.3958 19.5919 12.668 19.7259 11.7849C19.861 10.8989 19.7296 10.0421 19.4305 9.39179C19.1302 8.74149 18.6829 8.32849 18.1665 8.18033C17.9502 8.11803 17.7155 8.09516 17.5141 8.08909C17.0885 6.63076 16.2124 5.30449 14.9496 4.33616C13.708 3.38346 12.2312 2.87923 10.7388 2.83023Z" fill="#C3C3C3"/>
<path fill-rule="evenodd" clip-rule="evenodd" d="M13.0684 9.18081C13.5946 9.18081 14.0211 9.60734 14.0223 10.1349C14.0211 10.6611 13.5946 11.0888 13.0684 11.0888C12.5408 11.0888 12.1131 10.6611 12.1131 10.1349C12.1131 9.60757 12.5411 9.18081 13.0684 9.18081ZM10.4994 9.18081C11.0267 9.18081 11.4533 9.60734 11.4533 10.1349C11.4533 10.6611 11.0267 11.0888 10.4994 11.0888C9.9716 11.0888 9.54507 10.6611 9.54507 10.1349C9.54507 9.60757 9.9716 9.18081 10.4994 9.18081ZM7.93133 9.18081C8.4575 9.18081 8.8852 9.60734 8.8852 10.1349C8.8852 10.6611 8.4575 11.0888 7.93133 11.0888C7.404 11.0888 6.97723 10.6611 6.97723 10.1349C6.97723 9.60757 7.404 9.18081 7.93133 9.18081ZM10.4994 5.08301C7.70173 5.08301 5.44727 7.26327 5.44727 10.1349C5.44727 11.5141 5.96877 12.7331 6.81833 13.6274L6.51687 14.9789C6.41747 15.4236 6.72593 15.7228 7.12563 15.5002L8.44537 14.764C9.07257 15.0363 9.76627 15.1868 10.4994 15.1868C13.298 15.1868 15.5511 13.0079 15.5511 10.1349C15.5511 7.26327 13.298 5.08301 10.4994 5.08301Z" fill="#C3C3C3"/>
</svg>
