<svg width="21" height="21" viewBox="0 0 21 21" fill="none" xmlns="http://www.w3.org/2000/svg">
<path d="M17.0627 10.9375H19.6877C20.2608 10.9331 20.2608 10.0669 19.6877 10.0625H17.0627C16.4895 10.0669 16.4895 10.9331 17.0627 10.9375Z" fill="#2CCAA1"/>
<path d="M16.6246 7.43812C16.7383 7.43812 16.8477 7.39437 16.9352 7.31125L18.2477 5.99875C18.4183 5.82812 18.4183 5.5525 18.2477 5.38187C18.0771 5.21125 17.8015 5.21125 17.6308 5.38187L16.3183 6.69438C16.0383 6.9525 16.2483 7.45125 16.6246 7.43812Z" fill="#2CCAA1"/>
<path d="M17.626 15.6238C18.0329 16.0263 18.6498 15.4094 18.2429 15.0069L16.9304 13.6944C16.7598 13.5237 16.4841 13.5237 16.3135 13.6944C16.1429 13.865 16.1429 14.1406 16.3135 14.3113L17.626 15.6238Z" fill="#2CCAA1"/>
<path d="M11.06 16.3452C11.2131 16.4896 12.1581 17.6271 12.3462 17.7059C13.195 18.314 14.4681 17.6402 14.4375 16.5902V4.41024C14.4681 3.35149 13.1731 2.67774 12.3244 3.30774C11.6463 3.89837 10.8981 4.97024 10.1675 5.49524C8.79812 6.65462 7.035 7.31087 5.25 7.42462V13.5759C5.89312 13.6284 6.53625 13.7159 7.15313 13.904C8.64938 14.3327 10.0144 15.1946 11.06 16.3452Z" fill="#2CCAA1"/>
<path d="M0.91386 11.769C1.09323 12.784 2.02511 13.5715 3.06199 13.5627H4.37449V7.43774H3.06199C1.85449 7.43774 0.874485 8.41774 0.874485 9.62524C0.88761 9.93149 0.839485 11.5021 0.91386 11.769Z" fill="#2CCAA1"/>
<path d="M3.0625 14.4374C2.75625 14.4374 2.46312 14.3893 2.1875 14.3105V16.6249C2.23125 18.353 4.76875 18.3574 4.8125 16.6249V14.4374C4.52375 14.4374 3.37312 14.4374 3.0625 14.4374Z" fill="#2CCAA1"/>
</svg>
